<svg width="378" height="113" xmlns="http://www.w3.org/2000/svg" xmlns:xlink="http://www.w3.org/1999/xlink" overflow="hidden"><defs><clipPath id="clip0"><rect x="0" y="0" width="378" height="113"/></clipPath><clipPath id="clip1"><path d="M114 22.268C114 12.723 121.761 4.98529 131.334 4.98529L246.666 4.98529C256.239 4.98529 264 12.723 264 22.268L264 91.3967C264 100.942 256.239 108.679 246.666 108.679L131.334 108.679C121.761 108.679 114 100.942 114 91.3967Z" fill-rule="evenodd" clip-rule="evenodd"/></clipPath><clipPath id="clip2"><rect x="132" y="0" width="114" height="114"/></clipPath><clipPath id="clip3"><rect x="132" y="0" width="114" height="114"/></clipPath></defs><g clip-path="url(#clip0)"><rect x="0" y="0" width="378" height="112.668" fill="#0D0786" fill-opacity="0.2"/><g clip-path="url(#clip1)"><g clip-path="url(#clip2)"><g clip-path="url(#clip3)"><path d="M19.4463 97.585C18.6213 98.41 17.5606 98.6457 16.4999 98.1743 15.4392 97.7028 14.8499 96.76 14.8499 95.6993 14.8499 94.6386 15.557 93.5779 16.4999 93.2243 17.5606 92.7529 18.6213 92.9886 19.4463 93.8136 20.507 94.7564 20.507 96.5243 19.4463 97.585ZM102.653 19.9177 93.1064 29.4641 85.5636 27.4605 83.6779 20.0356 93.2243 10.4892C87.5672 8.36779 81.203 9.66421 76.7244 13.6713 72.2459 17.7963 70.478 23.9248 72.0102 29.8176L11.9035 89.9243C9.78207 91.9279 8.95708 94.9921 9.66421 97.8207 10.3714 100.649 12.6106 102.889 15.4392 103.596 18.2677 104.303 21.2141 103.478 23.3355 101.356L83.4422 41.2497C89.335 42.7818 95.4636 41.014 99.5885 36.5354 103.596 32.0569 104.892 25.5748 102.653 19.9177Z" fill="#0D0786" transform="matrix(1 0 0 1.00334 132.429 0.0722668)"/><path d="M102.181 89.9243 71.7745 59.5174 59.5174 71.7745 88.9815 101.239 90.0422 102.299 90.16 102.181C93.5779 104.656 98.2921 104.185 101.239 101.239 104.185 98.1743 104.538 93.46 102.181 89.9243L102.181 89.9243Z" fill="#0D0786" transform="matrix(1 0 0 1.00334 132.429 0.0722668)"/><path d="M26.6355 23.3355 26.7534 23.2177 23.6891 17.5606 13.5535 9.4285 9.4285 13.5535 17.5606 23.6891 23.2177 26.7534 23.3355 26.6355 45.8461 49.1461 49.1461 45.8461Z" fill="#0D0786" transform="matrix(1 0 0 1.00334 132.429 0.0722668)"/></g></g></g></g></svg>