<svg width="378" height="113" xmlns="http://www.w3.org/2000/svg" xmlns:xlink="http://www.w3.org/1999/xlink" overflow="hidden"><defs><clipPath id="clip0"><rect x="0" y="0" width="378" height="113"/></clipPath><clipPath id="clip1"><path d="M107 18.7777C107 8.40708 115.432-5.2045e-15 125.833-5.2045e-15L252.167 0C262.568-5.2045e-15 271 8.40708 271 18.7777L271 93.886C271 104.257 262.568 112.664 252.167 112.664L125.833 112.664C115.432 112.664 107 104.257 107 93.886Z" fill-rule="evenodd" clip-rule="evenodd"/></clipPath><clipPath id="clip2"><rect x="107" y="-11" width="164" height="135"/></clipPath><clipPath id="clip3"><rect x="107" y="-11" width="164" height="135"/></clipPath></defs><g clip-path="url(#clip0)"><rect x="0" y="0" width="378" height="112.668" fill="#6A00A8" fill-opacity="0.2"/><g clip-path="url(#clip1)"><g clip-path="url(#clip2)"><g clip-path="url(#clip3)"><path d="M53.13 40.5437 81.0931 40.5437 81.0931 54.5253 53.13 54.5253Z" fill="#6A00A8" transform="matrix(1.21979 0 0 1 107.138 -10.7797)"/><path d="M19.5742 40.5437 47.5373 40.5437 47.5373 54.5253 19.5742 54.5253Z" fill="#6A00A8" transform="matrix(1.21979 0 0 1 107.138 -10.7797)"/><path d="M19.5742 60.1179 30.7594 60.1179 30.7594 74.0995 19.5742 74.0995Z" fill="#6A00A8" transform="matrix(1.21979 0 0 1 107.138 -10.7797)"/><path d="M103.464 60.1207 114.649 60.1207 114.649 74.1023 103.464 74.1023Z" fill="#6A00A8" transform="matrix(1.21979 0 0 1 107.138 -10.7797)"/><path d="M36.3521 60.1207 64.3152 60.1207 64.3152 74.1023 36.3521 74.1023Z" fill="#6A00A8" transform="matrix(1.21979 0 0 1 107.138 -10.7797)"/><path d="M69.9078 60.1207 97.871 60.1207 97.871 74.1023 69.9078 74.1023Z" fill="#6A00A8" transform="matrix(1.21979 0 0 1 107.138 -10.7797)"/><path d="M53.13 79.6949 81.0931 79.6949 81.0931 93.6765 53.13 93.6765Z" fill="#6A00A8" transform="matrix(1.21979 0 0 1 107.138 -10.7797)"/><path d="M19.5742 79.6949 47.5373 79.6949 47.5373 93.6765 19.5742 93.6765Z" fill="#6A00A8" transform="matrix(1.21979 0 0 1 107.138 -10.7797)"/><path d="M19.5742 99.2691 30.7594 99.2691 30.7594 113.251 19.5742 113.251Z" fill="#6A00A8" transform="matrix(1.21979 0 0 1 107.138 -10.7797)"/><path d="M103.464 99.2691 114.649 99.2691 114.649 113.251 103.464 113.251Z" fill="#6A00A8" transform="matrix(1.21979 0 0 1 107.138 -10.7797)"/><path d="M86.6857 79.6949 114.649 79.6949 114.649 93.6765 86.6857 93.6765Z" fill="#6A00A8" transform="matrix(1.21979 0 0 1 107.138 -10.7797)"/><path d="M36.3521 99.2691 64.3152 99.2691 64.3152 113.251 36.3521 113.251Z" fill="#6A00A8" transform="matrix(1.21979 0 0 1 107.138 -10.7797)"/><path d="M69.9078 99.2691 97.871 99.2691 97.871 113.251 69.9078 113.251Z" fill="#6A00A8" transform="matrix(1.21979 0 0 1 107.138 -10.7797)"/><path d="M87.7542 19.4245 116.457 19.4245 116.457 33.6726 87.7542 33.6726Z" fill="#6A00A8" transform="matrix(1.09231 -0.383714 0.468052 0.895486 104.52 30.4897)"/></g></g></g></g></svg>