<svg width="378" height="113" xmlns="http://www.w3.org/2000/svg" xmlns:xlink="http://www.w3.org/1999/xlink" overflow="hidden"><defs><clipPath id="clip0"><rect x="0" y="0" width="378" height="113"/></clipPath><clipPath id="clip1"><path d="M107 18.7777C107 8.40708 115.432-5.2045e-15 125.833-5.2045e-15L252.167 0C262.568-5.2045e-15 271 8.40708 271 18.7777L271 93.8862C271 104.257 262.568 112.664 252.167 112.664L125.833 112.664C115.432 112.664 107 104.257 107 93.8862Z" fill-rule="evenodd" clip-rule="evenodd"/></clipPath><clipPath id="clip2"><rect x="107" y="-26" width="164" height="165"/></clipPath><clipPath id="clip3"><rect x="107" y="-26" width="164" height="165"/></clipPath></defs><g clip-path="url(#clip0)"><rect x="0" y="0" width="378" height="112.668" fill="#B02A90" fill-opacity="0.2"/><g clip-path="url(#clip1)"><g clip-path="url(#clip2)"><g clip-path="url(#clip3)"><path d="M71.75 46.125 99.0833 46.125 99.0833 41C99.0833 37.2417 96.0083 34.1667 92.25 34.1667L20.5 34.1667C16.7417 34.1667 13.6667 37.2417 13.6667 41L13.6667 87.125C13.6667 90.8833 16.7417 93.9583 20.5 93.9583L30.75 93.9583 30.75 111.042 47.8333 93.9583 58.0833 93.9583 58.0833 59.7917C58.0833 52.275 64.2333 46.125 71.75 46.125Z" fill="#B02A90" transform="matrix(1 0 0 1.00298 107 -25.9127)"/><path d="M143.5 52.9583 71.75 52.9583C67.9917 52.9583 64.9167 56.0333 64.9167 59.7917L64.9167 105.917C64.9167 109.675 67.9917 112.75 71.75 112.75L116.167 112.75 133.25 129.833 133.25 112.75 143.5 112.75C147.258 112.75 150.333 109.675 150.333 105.917L150.333 59.7917C150.333 56.0333 147.258 52.9583 143.5 52.9583Z" fill="#B02A90" transform="matrix(1 0 0 1.00298 107 -25.9127)"/></g></g></g></g></svg>