<svg width="378" height="113" xmlns="http://www.w3.org/2000/svg" xmlns:xlink="http://www.w3.org/1999/xlink" overflow="hidden"><defs><clipPath id="clip0"><rect x="0" y="0" width="378" height="113"/></clipPath><clipPath id="clip1"><path d="M114 22.268C114 12.723 121.761 4.98529 131.334 4.98529L246.666 4.98529C256.239 4.98529 264 12.723 264 22.268L264 91.3967C264 100.942 256.239 108.679 246.666 108.679L131.334 108.679C121.761 108.679 114 100.942 114 91.3967Z" fill-rule="evenodd" clip-rule="evenodd"/></clipPath><clipPath id="clip2"><rect x="127" y="-7" width="124" height="128"/></clipPath><clipPath id="clip3"><rect x="127" y="-7" width="124" height="128"/></clipPath></defs><g clip-path="url(#clip0)"><rect x="0" y="0" width="378" height="112.668" fill="#E06361" fill-opacity="0.2"/><g clip-path="url(#clip1)"><g clip-path="url(#clip2)"><g clip-path="url(#clip3)"><path d="M52.2426 110.538 110.3 96.5244 110.3 32.7554 68.0451 12.6332 12.8256 24.6816 12.8256 89.3138ZM67.1126 20.7134 94.7365 33.8673 72.3737 38.8796 53.3302 43.148 27.6546 29.3219ZM20.521 84.7171 20.521 34.2213 48.9233 49.5159 48.9233 100.012ZM102.605 90.4656 56.6187 101.566 56.6187 50.2983 76.6062 45.817 102.605 39.9903Z" fill="#E06361" transform="matrix(1 0 0 1.03044 127.437 -6.6046)"/><path d="M66.2957 23.3247 68.8608 23.3247 68.8608 28.4549 66.2957 28.4549Z" fill="#E06361" transform="matrix(1 0 0 1.03044 127.437 -6.6046)"/><path d="M66.2957 50.2585 68.8608 50.2585 68.8608 55.3887 66.2957 55.3887Z" fill="#E06361" transform="matrix(1 0 0 1.03044 127.437 -6.6046)"/><path d="M66.2957 59.2364 68.8608 59.2364 68.8608 64.3667 66.2957 64.3667Z" fill="#E06361" transform="matrix(1 0 0 1.03044 127.437 -6.6046)"/><path d="M66.2957 32.3026 68.8608 32.3026 68.8608 37.4329 66.2957 37.4329Z" fill="#E06361" transform="matrix(1 0 0 1.03044 127.437 -6.6046)"/><path d="M66.2957 68.2144 68.8608 68.2144 68.8608 73.3446 66.2957 73.3446Z" fill="#E06361" transform="matrix(1 0 0 1.03044 127.437 -6.6046)"/><path d="M87.0262 82.9377 89.6041 82.9377 89.6041 88.0935 87.0262 88.0935Z" fill="#E06361" transform="matrix(0.41017 -0.934166 0.90657 0.422656 101.564 127.434)"/><path d="M60.5497 75.7244 65.6872 75.7244 65.6872 78.2931 60.5497 78.2931Z" fill="#E06361" transform="matrix(0.97571 -0.219068 0.212596 1.00541 112.511 9.03922)"/><path d="M25.4149 83.3908 30.5523 83.3908 30.5523 85.9595 25.4149 85.9595Z" fill="#E06361" transform="matrix(0.97571 -0.219068 0.212596 1.00541 110.076 1.52326)"/><path d="M78.805 79.2188 81.3829 79.2188 81.3829 84.3733 78.805 84.3733Z" fill="#E06361" transform="matrix(0.410061 -0.93422 0.906623 0.422543 100.131 117.527)"/><path d="M95.2472 86.6563 97.8251 86.6563 97.8251 91.8121 95.2472 91.8121Z" fill="#E06361" transform="matrix(0.41017 -0.934166 0.90657 0.422656 103 137.355)"/><path d="M70.5854 75.5002 73.1633 75.5002 73.1633 80.656 70.5854 80.656Z" fill="#E06361" transform="matrix(0.410061 -0.93422 0.906623 0.422543 98.6948 107.606)"/><path d="M34.1986 81.4745 39.336 81.4745 39.336 84.0432 34.1986 84.0432Z" fill="#E06361" transform="matrix(0.97571 -0.219068 0.212596 1.00541 110.684 3.40258)"/><path d="M42.9823 79.5582 48.1197 79.5582 48.1197 82.1269 42.9823 82.1269Z" fill="#E06361" transform="matrix(0.97571 -0.219068 0.212596 1.00541 111.293 5.2819)"/></g></g></g></g></svg>