<svg width="378" height="113" xmlns="http://www.w3.org/2000/svg" xmlns:xlink="http://www.w3.org/1999/xlink" overflow="hidden"><defs><clipPath id="clip0"><rect x="0" y="0" width="378" height="113"/></clipPath><clipPath id="clip1"><path d="M109 16.2856C109 5.08869 118.104-3.98824 129.334-3.98824L248.666-3.98824C259.896-3.98824 269 5.08869 269 16.2856L269 97.3791C269 108.576 259.896 117.653 248.666 117.653L129.334 117.653C118.104 117.653 109 108.576 109 97.3791Z" fill-rule="evenodd" clip-rule="evenodd"/></clipPath><clipPath id="clip2"><rect x="109" y="-32" width="160" height="178"/></clipPath><clipPath id="clip3"><rect x="109" y="-32" width="160" height="178"/></clipPath></defs><g clip-path="url(#clip0)"><rect x="0" y="0" width="378" height="112.668" fill="#FBA636" fill-opacity="0.2"/><g clip-path="url(#clip1)"><g clip-path="url(#clip2)"><g clip-path="url(#clip3)"><path d="M55 51.3333C55 59.6176 48.2843 66.3333 40 66.3333 31.7157 66.3333 25 59.6176 25 51.3333 25 43.0491 31.7157 36.3333 40 36.3333 48.2843 36.3333 55 43.0491 55 51.3333Z" fill="#FBA636" transform="matrix(1 0 0 1.10998 109 -31.9657)"/><path d="M135 51.3333C135 59.6176 128.284 66.3333 120 66.3333 111.716 66.3333 105 59.6176 105 51.3333 105 43.0491 111.716 36.3333 120 36.3333 128.284 36.3333 135 43.0491 135 51.3333Z" fill="#FBA636" transform="matrix(1 0 0 1.10998 109 -31.9657)"/><path d="M110 123.667 110 108.667C110 106.333 109 104 107 102.667 103 99.3333 97.6667 97 92.3333 95.6667 88.6667 94.6667 84.3333 93.6667 80 93.6667 76 93.6667 71.6667 94.3333 67.6667 95.6667 62.3333 97 57.3333 99.6667 53 102.667 51 104.333 50 106.333 50 108.667L50 123.667 110 123.667Z" fill="#FBA636" transform="matrix(1 0 0 1.10998 109 -31.9657)"/><path d="M95 74.6667C95 82.9509 88.2843 89.6667 80 89.6667 71.7157 89.6667 65 82.9509 65 74.6667 65 66.3824 71.7157 59.6667 80 59.6667 88.2843 59.6667 95 66.3824 95 74.6667Z" fill="#FBA636" transform="matrix(1 0 0 1.10998 109 -31.9657)"/><path d="M147 79.3333C143 76 137.667 73.6667 132.333 72.3333 128.667 71.3333 124.333 70.3333 120 70.3333 116 70.3333 111.667 71 107.667 72.3333 105.667 73 103.667 73.6667 101.667 74.6667L101.667 75C101.667 80.6667 99.3333 86 95.6667 89.6667 102 91.6667 107 94.3333 111 97.3333 112 98.3333 113 99 113.667 100.333L150 100.333 150 85.3333C150 83 149 80.6667 147 79.3333Z" fill="#FBA636" transform="matrix(1 0 0 1.10998 109 -31.9657)"/><path d="M49 97.3333 49 97.3333C53.6667 94 59 91.3333 64.3333 89.6667 60.6667 85.6667 58.3333 80.6667 58.3333 75 58.3333 74.6667 58.3333 74.6667 58.3333 74.3333 56.3333 73.6667 54.3333 72.6667 52.3333 72.3333 48.6667 71.3333 44.3333 70.3333 40 70.3333 36 70.3333 31.6667 71 27.6667 72.3333 22.3333 74 17.3333 76.3333 13 79.3333 11 80.6667 10 83 10 85.3333L10 100.333 46 100.333C47 99 47.6667 98.3333 49 97.3333Z" fill="#FBA636" transform="matrix(1 0 0 1.10998 109 -31.9657)"/></g></g></g></g></svg>