<svg width="378" height="189" xmlns="http://www.w3.org/2000/svg" xmlns:xlink="http://www.w3.org/1999/xlink" overflow="hidden"><defs><clipPath id="clip0"><rect x="0" y="0" width="378" height="189"/></clipPath><clipPath id="clip1"><path d="M42 34.5007C42 17.1034 56.1033 3 73.5007 3L284.499 3C301.897 3 316 17.1034 316 34.5007L316 160.499C316 177.897 301.897 192 284.499 192L73.5007 192C56.1033 192 42 177.897 42 160.499Z" fill-rule="evenodd" clip-rule="evenodd"/></clipPath><clipPath id="clip2"><rect x="42" y="-41" width="274" height="277"/></clipPath><clipPath id="clip3"><rect x="42" y="-41" width="274" height="277"/></clipPath></defs><g clip-path="url(#clip0)"><rect x="0" y="0" width="378" height="189" fill="#FFFFFF"/><g clip-path="url(#clip1)"><g clip-path="url(#clip2)"><g clip-path="url(#clip3)"><path d="M119.875 77.0625 165.542 77.0625 165.542 68.5C165.542 62.2208 160.404 57.0833 154.125 57.0833L34.25 57.0833C27.9708 57.0833 22.8333 62.2208 22.8333 68.5L22.8333 145.562C22.8333 151.842 27.9708 156.979 34.25 156.979L51.375 156.979 51.375 185.521 79.9167 156.979 97.0417 156.979 97.0417 99.8958C97.0417 87.3375 107.317 77.0625 119.875 77.0625Z" fill="#B02A90" transform="matrix(1 0 0 1.00708 42 -40.47)"/><path d="M239.75 88.4792 119.875 88.4792C113.596 88.4792 108.458 93.6167 108.458 99.8958L108.458 176.958C108.458 183.238 113.596 188.375 119.875 188.375L194.083 188.375 222.625 216.917 222.625 188.375 239.75 188.375C246.029 188.375 251.167 183.238 251.167 176.958L251.167 99.8958C251.167 93.6167 246.029 88.4792 239.75 88.4792Z" fill="#B02A90" transform="matrix(1 0 0 1.00708 42 -40.47)"/></g></g></g></g></svg>